<?xml version="1.0" encoding="UTF-8"?>
<svg width="43px" height="43px" viewBox="0 0 43 43" version="1.1" xmlns="http://www.w3.org/2000/svg" xmlns:xlink="http://www.w3.org/1999/xlink">
    <!-- Generator: Sketch 63.1 (92452) - https://sketch.com -->
    <title>Regular-M</title>
    <desc>Created with Sketch.</desc>
    <g id="Page-1" stroke="none" stroke-width="1" fill="none" fill-rule="evenodd">
        <g id="Artboard" transform="translate(-600.000000, -444.000000)" fill="#000000" fill-rule="nonzero">
            <g id="square.and.pencil">
                <g id="Symbols" transform="translate(214.318182, 264.468636)">
                    <g id="Regular-M" transform="translate(386.244227, 179.598636)">
                        <path d="M39.5408473,5.36215518 L41.0479327,3.81336341 C41.7594691,3.08082386 41.7804723,2.0552685 41.0685073,1.36460673 L40.5871486,0.862287773 C39.9386218,0.213460909 38.8918918,0.297216455 38.2223618,0.966960773 L36.6944446,2.47387477 L39.5408473,5.36215518 Z M15.4510121,27.1288241 L19.5322733,25.3498117 L37.9921841,6.88998664 L35.1247354,4.06450145 L16.6858278,22.5243265 L14.8021853,26.4590798 C14.6347599,26.8148908 15.0533233,27.2962495 15.4510121,27.1288241 Z M6.76525345,42.7003859 L31.3364901,42.7003859 C35.0829005,42.7003859 37.2804763,40.523719 37.2804763,36.2122373 L37.2804763,12.9176855 L33.9108372,16.2873245 L33.9108372,36.0448034 C33.9108372,38.2214711 32.7178565,39.330734 31.2736949,39.330734 L6.80713123,39.330734 C4.71414273,39.330734 3.56303977,38.2214711 3.56303977,36.0448034 L3.56303977,12.289819 C3.56303977,10.1131606 4.71414273,8.98293227 6.80713123,8.98293227 L24.9111453,8.98293227 L28.2807843,5.61329323 L6.76525345,5.61329323 C2.3909765,5.61329323 0.193400727,7.78995155 0.193400727,12.1014333 L0.193400727,36.2122373 C0.193400727,40.5446451 2.3909765,42.7003859 6.76525345,42.7003859 Z" id="Shape"></path>
                    </g>
                </g>
            </g>
        </g>
    </g>
</svg>